<svg id="eoeSWCn7hYm1" xmlns="http://www.w3.org/2000/svg" xmlns:xlink="http://www.w3.org/1999/xlink" viewBox="0 0 300 300" shape-rendering="geometricPrecision" text-rendering="geometricPrecision"><defs><linearGradient id="eoeSWCn7hYm3-fill" x1="0.066988" y1="0.75" x2="0.933012" y2="0.25" spreadMethod="pad" gradientUnits="objectBoundingBox" gradientTransform="translate(0 0)"><stop id="eoeSWCn7hYm3-fill-0" offset="35%" stop-color="#fff"/><stop id="eoeSWCn7hYm3-fill-1" offset="100%" stop-color="#bdbcbc"/></linearGradient><linearGradient id="eoeSWCn7hYm4-fill" x1="0.066988" y1="0.75" x2="0.933012" y2="0.25" spreadMethod="pad" gradientUnits="objectBoundingBox" gradientTransform="translate(0 0)"><stop id="eoeSWCn7hYm4-fill-0" offset="35%" stop-color="#9c8a7e"/><stop id="eoeSWCn7hYm4-fill-1" offset="100%" stop-color="#614d3d"/></linearGradient><linearGradient id="eoeSWCn7hYm5-fill" x1="0" y1="0.5" x2="1" y2="0.5" spreadMethod="pad" gradientUnits="objectBoundingBox" gradientTransform="translate(0 0)"><stop id="eoeSWCn7hYm5-fill-0" offset="0%" stop-color="#fff"/><stop id="eoeSWCn7hYm5-fill-1" offset="100%" stop-color="#cfcfcd"/></linearGradient><linearGradient id="eoeSWCn7hYm6-fill" x1="0.5" y1="0" x2="0.5" y2="1" spreadMethod="pad" gradientUnits="objectBoundingBox" gradientTransform="translate(0 0)"><stop id="eoeSWCn7hYm6-fill-0" offset="1%" stop-color="#c3bdbd"/><stop id="eoeSWCn7hYm6-fill-1" offset="29%" stop-color="#e5e5e5"/><stop id="eoeSWCn7hYm6-fill-2" offset="66%" stop-color="#fff"/><stop id="eoeSWCn7hYm6-fill-3" offset="81%" stop-color="#f8f8f8"/><stop id="eoeSWCn7hYm6-fill-4" offset="100%" stop-color="#b5b5b5"/></linearGradient></defs><g transform="matrix(1.539773 0 0 1.539773-81.453007-61.31134)"><path d="M0,0h86.48524L74.181615,119.116262c-1.489358,3.171137-6.797152,5.773613-14.154741,5.773613l-33.206285.029196c-8.554264-.305937-12.177781-2.46411-13.638284-5.667894L0,0Z" transform="translate(106.75738 87.69343)" fill="url(#eoeSWCn7hYm3-fill)" stroke-width="0"/><path d="M11.346376,118.713962L2.474128,38.650229l81.768496-.037409-8.334108,80.052563" transform="translate(106.757376 71.38718)" fill="url(#eoeSWCn7hYm4-fill)" stroke-width="0"/><path d="M2.87836,2.984226c20.849124-1.191748,65.424042-.975254,89.24262,0l3.119329,19.743575h-95.240309L2.87836,2.984226Z" transform="translate(102.380334 61.118941)" fill="url(#eoeSWCn7hYm5-fill)" stroke-width="0"/><path d="M200,83.25598c0,.06899-.00313.13947-.00922.21121.00893.15437.01197.31134.00922.47036.00911,2.0625-.88067,3.75594-3.0625,3.75594c0,0-22.59112,0-46.9375,0s-46.9375,0-46.9375,0c-2.18183,0-3.07161-1.69344-3.0625-3.75594-.00276-.15902.00029-.316.00922-.47036-.00609-.07174-.00922-.14222-.00922-.21121l.02535-.00085c.17466-1.84487,1.22296-3.2662,3.28715-3.25507L150,81.57225l46.6875-1.57219c2.06419-.01112,3.11249,1.4102,3.28715,3.25507L200,83.25598Z" fill="url(#eoeSWCn7hYm6-fill)" stroke-width="0"/></g></svg>