<svg id="eM4SYLUTB321" xmlns="http://www.w3.org/2000/svg" xmlns:xlink="http://www.w3.org/1999/xlink" viewBox="0 0 800 600" shape-rendering="geometricPrecision" text-rendering="geometricPrecision"><defs><linearGradient id="eM4SYLUTB323-fill" x1="0.066988" y1="0.75" x2="0.933012" y2="0.25" spreadMethod="pad" gradientUnits="objectBoundingBox" gradientTransform="translate(0 0)"><stop id="eM4SYLUTB323-fill-0" offset="35%" stop-color="#fff"/><stop id="eM4SYLUTB323-fill-1" offset="100%" stop-color="#bdbcbc"/></linearGradient><linearGradient id="eM4SYLUTB324-fill" x1="0.066988" y1="0.75" x2="0.933012" y2="0.25" spreadMethod="pad" gradientUnits="objectBoundingBox" gradientTransform="translate(0 0)"><stop id="eM4SYLUTB324-fill-0" offset="35%" stop-color="#9c8a7e"/><stop id="eM4SYLUTB324-fill-1" offset="100%" stop-color="#614d3d"/></linearGradient><linearGradient id="eM4SYLUTB325-fill" x1="0" y1="0.5" x2="1" y2="0.5" spreadMethod="pad" gradientUnits="objectBoundingBox" gradientTransform="translate(0 0)"><stop id="eM4SYLUTB325-fill-0" offset="0%" stop-color="#fff"/><stop id="eM4SYLUTB325-fill-1" offset="100%" stop-color="#cfcfcd"/></linearGradient><linearGradient id="eM4SYLUTB326-fill" x1="0.5" y1="0" x2="0.5" y2="1" spreadMethod="pad" gradientUnits="objectBoundingBox" gradientTransform="translate(0 0)"><stop id="eM4SYLUTB326-fill-0" offset="1%" stop-color="#c3bdbd"/><stop id="eM4SYLUTB326-fill-1" offset="29%" stop-color="#e5e5e5"/><stop id="eM4SYLUTB326-fill-2" offset="66%" stop-color="#fff"/><stop id="eM4SYLUTB326-fill-3" offset="81%" stop-color="#f8f8f8"/><stop id="eM4SYLUTB326-fill-4" offset="100%" stop-color="#b5b5b5"/></linearGradient><linearGradient id="eM4SYLUTB3226-fill" x1="0" y1="0.5" x2="1" y2="0.5" spreadMethod="pad" gradientUnits="objectBoundingBox" gradientTransform="translate(0 0)"><stop id="eM4SYLUTB3226-fill-0" offset="0%" stop-color="#d4a064"/><stop id="eM4SYLUTB3226-fill-1" offset="37%" stop-color="#d6a57a"/></linearGradient></defs><g><path d="M71.529708,300.414187q-10.830488,1.086638-11.180355,1.086638t-31.850687,8.349187l6.997337-8.046939L6.457051,307.75081l11.895474-14.694409-67.717606-45.912478l17.884245.555467-52.653459-81.577305l17.225115,3.827804-26.794623-45.295674l15.311213,8.293574L-89.876,99.773494l30.920736,33.091483l56.678438,56.678437l56.678437,35.336557l63.325909,30.088553-32.481516,44.807695-13.716296.637968Z" transform="translate(133.564148 12.56235)" fill="#e6ca9f" stroke-width="1.2"/><path d="M67.34669,305.349361q-6.64747-3.848536-6.997337-3.848536t-25.890152,9.796274l6.997337-8.046939-29.038952,5.947737L24.31306,294.503488l-55.628837-28.33922l14.694409-4.548271-59.477374-86.76699l20.29228-5.947738-24.140815-22.391481l14.344542,5.597869-37.085891-40.234694l43.733362,20.992014l56.678438,56.678437l56.678437,35.336557l63.325909,30.088553-40.58456,51.430434-9.79627-1.049597Z" transform="translate(144.984462 0.000004)" fill="#e8ac66" stroke-width="1.2"/><path d="M115.675497,252.854221L96.968161,271.561558q1.439025,5.03659,2.158538,5.756103c.719513.719513,341.768645-9.353668,342.488158-8.634155q.719513.719513,5.756104-19.426849l6.475616-21.585388l9.353668-1.439026l61.1586-7.914643l5.756103-12.951233-3.597565-16.548798-78.426911,7.914642-12.951234,29.500031-36.695161,11.512207-65.475678,5.756103-77.707398-1.439026-70.512269.719513-69.073235,10.073182Z" transform="translate(144.984467 0.000001)" fill="#cc904a" stroke-width="1.2"/><path d="M117.240751,48.570121l10.877722,55.513892-8.252065,20.255069l6.376595-.375095-7.126783,16.504129l9.002253-6.751691L100.73662,261.998527l18.401101,47.84286l44.162639-1.380082-4.600275-25.301513-19.321155,3.68022.460027-24.381458l35.422118-45.082695l42.322529-13.800825l20.701238-28.061678l11.960715-47.842861-12.880771-50.142998l5.980357-20.701237q-126.621274-8.231783-126.104392-8.256139Z" transform="matrix(.849459 0 0 0.849466 204.869533 254.695608)" fill="#be853a" stroke-width="0.6"/><path d="M174.322311,215.7584q.408125,0,43.669446-4.081256l15.916901-10.203142-.823915,7.213413l6.013939-8.74755l4.373774-4.100414-.546722,4.510454l9.977673-21.595514l45.834938-42.349053-54.502837-23.899927Q173.914183,215.758396,174.322311,215.7584Z" transform="translate(94.570752 255.429463)" fill="#e8ac66" stroke-width="0.6"/><path d="M250.721121,128.786958l14.411493-13.586257q91.758757,52.268441,92.17027,51.856929t1.64605-12.75689l25.925293,18.518067-.411513-16.048993l84.360084,48.146974-3.292102-21.810168l21.732668,26.048192l3.650843-13.629817l1.051239-2.70522L525.333161,76.827238L472.103709,80.40235L416.093614,97.086208l-42.106879,24.231317-92.952923-21.450674L234.954585,80.40235l15.766536,48.384608Z" transform="translate(62.359532 278.276888)" fill="#e6ca9f" stroke-width="0.6"/><path d="M250.721121,128.786958l11.11084-4.115126q95.05941,42.79731,95.470923,42.385798t1.64605-12.75689l25.925293,18.518067-.411513-16.048993l84.360084,48.146974-3.292102-21.810168l21.732668,26.048192l3.650843-13.629817l1.051239-2.70522L525.333161,76.827238L472.103709,80.40235L416.093614,97.086208l-42.106879,24.231317-92.952923-21.450674L234.954585,80.40235l15.766536,48.384608Z" transform="translate(57.484983 250.133469)" fill="#cc904a" stroke-width="0.6"/><path d="M407.974426,407.448361l-2.814612,8.443838-10.166776,64.433139l4.906622,22.934848l4.485332-5.029009.241759,19.224099l5.059088-9.234041l10.65912,40.482645l2.715619-5.489425l1.14423,9.022169l3.205637-6.084169l24.880209,24.753652l39.691367-.61537-6.1537-24.614801q-24.922486,1.84611-25.230171,1.538425t-4.92296-22.768691l-4.132366-36.630311l6.032165-38.586694l12.98047-19.22108l5.902907-28.740949-29.398357-2.356451-29.537761-1.23074-9.547822,9.768916Z" transform="matrix(.835925 0 0 0.835925 254.974923 34.242941)" fill="#be853a" stroke-width="1.2"/><path d="M447.426652,238.685798l7.864651-34.318475l42.540609-1.78742l62.764407-29.714412l17.516722,62.202236-7.507167-3.217357l10.367039,37.535832-8.937102-9.294588l2.63357,105.575688-6.434715-5.362261-.000001,24.666403-5.362263-10.724523-29.313698,52.192681-2.144906-12.869429-8.937104,18.23169l1.072452-12.869429-55.081266,56.400517l11.743678-80.926903-32.784906-155.72025Z" transform="matrix(.780031 0 0 0.780031 239.906323 62.529461)" fill="#e8ac66" stroke-width="1.2"/><path d="M117.240751,48.570121l10.877722,55.513892-8.252065,20.255069l6.376595-.375095-7.126783,16.504129l9.002253-6.751691L100.73662,261.998527l18.401101,47.84286l44.162639-1.380082-4.600275-25.301513-19.321155,3.68022.460027-24.381458l35.422118-45.082695l42.322529-13.800825l20.701238-28.061678l11.960715-47.842861-12.880771-50.142998l5.980357-20.701237q-126.621274-8.231783-126.104392-8.256139Z" transform="translate(94.570756 255.429462)" fill="#d69a54" stroke-width="0.6"/><path d="M67.376185,305.353663l30.706134-36.697575l64.407989-14.229673l220.934379-5.991441q-.74893,14.978601,0,14.978601t17.974323-17.974323l46.433665-8.238232l26.506621,23.548965l12.73181,63.659058-7.489302-3.744651l5.24251,16.476461-7.489302-.74893l11.817957,25.732553-14.883742,47.217388-71.372363-1.384784l14.978602-32.203994-2.24679-33.701855-47.931527,6.740371-45.684736,22.467903-36.697575,22.467903-63.659059-19.472183-34.082178-33.987421L67.376185,305.353663Z" transform="translate(144.984465-.513226)" fill="#d69a54" stroke-width="1.2"/><path d="M194.523626,401.888746l18.023907-9.612751-17.623375-45.660569l4.806375-18.824967-9.612751,18.023904c4.748651,34.128144,8.780807,48.751893,5.206907,54.071722" transform="translate(144.984458 0.000005)" fill="#be853a" stroke-width="1.2"/><path d="M408.451997,446.003639l-11.131439,18.478189-2.771243,23.530511l4.906622,22.934848l4.485332-5.029009.241759,19.224099l5.059088-9.234041l16.42194,39.118807l3.159342-13.176426l1.14423,9.022169l3.205637-6.084169l25.87016,15.373713l28.931742-.457611-2.146846-14.028783q-24.922486,1.84611-25.230171,1.538425t-4.92296-22.768691l-4.132366-36.630311l9.616525-35.84341-5.955307-14.428203-11.799326-9.573038-16.251901-2.894174-18.700818,20.927105Z" transform="translate(142.024384-3.107481)" fill="#edd5ad" stroke-width="1.2"/><path d="M407.974426,407.448361l-2.814612,8.443838-10.166776,64.433139l4.906622,22.934848l4.485332-5.029009.241759,19.224099l5.059088-9.234041l10.65912,40.482645l2.715619-5.489425l1.14423,9.022169l3.205637-6.084169l24.880209,24.753652l39.691367-.61537-6.1537-24.614801q-24.922486,1.84611-25.230171,1.538425t-4.92296-22.768691l-4.132366-36.630311l6.032165-38.586694l12.98047-19.22108l5.902907-28.740949-29.398357-2.356451-29.537761-1.23074-9.547822,9.768916Z" transform="translate(148.499658-13.4285)" fill="#d69a54" stroke-width="1.2"/><path d="M386.942525,295.250567q0-.364171,13.110162,21.121927l18.936899,13.838503l4.002527,48.26659-12.014293,23.839296-3.641711,5.462567q-2.169029,21.796564-2.169029,21.796564t-4.386052-25.802448l9.832621-41.151339-4.370054-23.671125-14.566846-20.029413q-4.734225-23.306954-4.734224-23.671122Z" transform="translate(144.984459 0.000003)" fill="#be853a" stroke-width="1.2"/><g transform="matrix(1.290066 0 0 1.290066-185.480836-11.590068)"><path d="M591.10706,78.348901l69.762247-3.848951l30.084,31.652352l6.056974,3.887326l7.223626,17.05579-17.610673,29.093254-10.103498-2.886714-8.660141-9.622379-68.800008,2.886714-4.81119,8.179022-9.14126,6.254546-24.055948-29.829374l3.367833-17.320282l5.292308-2.886714l21.39573-32.61459Z" transform="translate(5.265161 20.371095)" fill="#d69a54" stroke-width="1.6"/><path d="M604.946585,184.952108L593.81501,156.666427l-1.127457-14.155871l3.758196-16.034969l7.690861-11.105674l27.747598-4.423531l25.334764,1.206417l6.032087,11.662033l3.217112,12.868451-.000001,10.053476-4.07757,34.493625-17.314112,7.605259-26.375705,1.456325-13.754198-5.33986Z" transform="translate(2.493763-18.391466)" fill="#e8ac66" stroke-width="1.6"/><path d="M602.178645,141.69344l7.217728-5.962472q10.512778.470722,10.512778.627629t5.805565,7.68845l-.784537,9.25752-18.072168,18.695095q7.758897,16.481851,8.857247,16.952572c1.09835.470721,43.076957-2.497514,44.489122-2.1837q1.412165.313814,8.368617-17.530806l-20.450467-16.20423q-2.1967-9.414429-2.1967-9.571336c0-.156907,4.236493-9.257521,4.550307-9.257521q.313814,0,9.885149-.784536l7.374636,4.3934l6.433193-.941443-5.177936-12.08185-6.747007-10.512779q-26.831121-2.510514-26.988028-2.510514t-28.056476,5.762816l-6.747007,7.531543-5.021028,15.376899l6.747012,1.255263Z" transform="matrix(.911398 0 0 0.911398 54.78056-7.997928)" fill="url(#eM4SYLUTB3226-fill)" fill-opacity="0.2" stroke-width="1.6"/><path d="M613.434041,160.169407q-4.721344-11.273411-4.62499-11.273411c.096354,0,8.768209-5.395821,8.768209-5.299467q0,.096354,10.117162-13.007782l16.091107-.192708l9.442686,11.369765l8.864562,4.528635-2.601556,10.502579-9.442686,5.010405-28.713474.867185-7.90102-2.505201Z" transform="translate(.000002 0.000003)" fill="#e6ca9f" stroke-width="1.6"/><path d="M516.491391,148.574544q0-.252454-15.399665,8.583419l-6.058885-7.573606-.281574-7.722114-3.281897,2.524535.029121,4.945124l2.6734,12.501248l8.929091,11.097451l12.422917,4.180789l13.617428-4.539143l8.705021-11.244004l1.870763-11.23898-.029121-7.974567-2.776988-2.272082-.223333,8.479473-7.573605,8.330965q-13.884938-8.58341-12.622673-8.078508Z" transform="translate(120.379217 4.458495)" fill="#2c2c2c" stroke-width="1.6"/><path d="M486.182156,97.076254q0,0,22.292447-.247694c0,0,1.523355,23.149398-10.898532,23.283222s-11.393915-23.035528-11.393915-23.035528Z" transform="matrix(1 0 0 0.734884 138.894715 90.430122)" fill="#f3b5b5" stroke-width="1.6"/><path d="M629.672161,133.00246l5.839566-1.365091l6.673786,1.213416l3.033539,3.412732-2.350994,4.9295-5.612048,2.50267-2.578509.000001-5.081179-2.426833-2.654347-4.701986l2.730186-3.564409Z" transform="translate(.000002 0.000002)" fill="#292929" stroke-width="1.6"/><path d="M600.39146,145.596233l4.007825-6.182616l6.105364-.174439l4.783721,6.649151-7.923623,1.72392-6.973287-2.016016Z" transform="matrix(.911398 0 0 0.911398 99.805707-7.123724)" stroke-width="1.6" stroke-linecap="round" stroke-linejoin="round"/><path d="M600.39146,145.596233l4.007825-6.182616l6.105364-.174439l4.783721,6.649151-7.923623,1.72392-6.973287-2.016016Z" transform="matrix(-.911398 0 0 0.911398 1168.957012-5.861389)" stroke-width="1.6" stroke-linecap="round" stroke-linejoin="round"/><ellipse rx="1.678863" ry="1.157836" transform="matrix(.911398 0 0 0.911398 616.827211 122.731823)" fill="#fff" stroke-width="0"/><ellipse rx="1.678863" ry="1.157836" transform="matrix(.911398 0 0 0.911398 655.060034 121.696561)" fill="#fff" stroke-width="0"/></g><path d="M270.761151,251.950682l-18.050262-.247263-12.857721,10.632346-33.380623,39.562219l4.698013,3.956221l36.100525-36.842317l23.490068-17.061206Z" transform="translate(.000001 0.000001)" fill="#c8904e" stroke-width="1.6"/></g></svg>